<?xml version="1.0" encoding="UTF-8"?><svg xmlns="http://www.w3.org/2000/svg" viewBox="0 0 496 496"><g id="a"/><g id="b"><g id="c"><path d="M248,312c-35.33-.04-63.96-28.67-64-64,0-28.95,19.45-53.19,45.88-61.07l55.12-55.14-2.12-6.38c-11.15-3.17-22.7-5.41-34.88-5.41-70.69,0-128,57.31-128,128s57.31,128,128,128,128-57.31,128-128c0-12.18-2.24-23.73-5.42-34.89l-6.37-2.11-55.14,55.14c-7.96,27.12-32.81,45.77-61.07,45.86Zm236.43-138.9l-35.5,35.5c-5.43,5.38-11.97,9.5-19.17,12.07,15.9,101.19-53.24,196.1-154.43,212s-196.1-53.25-212-154.43S116.58,82.14,217.76,66.24c19.18-3.01,38.71-2.99,57.88,.05,2.47-7.19,6.48-13.75,11.76-19.22l35.5-35.5C298.67,3.9,273.41,0,248,0,111,0,0,111,0,248s111,248,248,248,248-111,248-248c0-25.41-3.9-50.67-11.57-74.9Z" style="fill:#e01f47; isolation:isolate;"/><path d="M310,69.7L373.68,6c8.04-8.02,21.06-8,29.08,.05,2.23,2.24,3.92,4.96,4.92,7.95l18.55,55.65,55.66,18.55c10.76,3.62,16.55,15.28,12.92,26.05-1.01,2.99-2.69,5.72-4.92,7.95l-63.59,63.8c-5.49,5.5-13.62,7.43-21,5l-49.7-16.57-90.6,90.57c-9.39,9.39-24.61,9.39-34,0s-9.39-24.61,0-34l90.59-90.59-16.59-49.7c-2.44-7.39-.5-15.51,5-21.01Z" style="fill:#383838;"/></g></g></svg>