<?xml version="1.0" encoding="UTF-8"?><svg xmlns="http://www.w3.org/2000/svg" viewBox="0 0 320 512"><g id="a"/><g id="b"><g id="c"><g><path d="M272,0H48C21.49,0,0,21.49,0,48V464c0,26.51,21.49,48,48,48h224c26.51,0,48-21.49,48-48h0V48c0-26.51-21.49-48-48-48Z" style="fill:#e01f47; isolation:isolate;"/><circle cx="160" cy="448" r="32" style="fill:#e01f47; isolation:isolate;"/><rect x="48" y="48" width="224" height="336" rx="12" ry="12" style="fill:#e01f47; isolation:isolate;"/><circle cx="159.5" cy="449" r="32" style="fill:#383838; isolation:isolate;"/><path d="M272,372c0,6.63-5.37,12-12,12H60c-6.63,0-12-5.37-12-12V60c0-6.63,5.37-12,12-12h200c6.63,0,12,5.37,12,12V372Z" style="fill:#fff;"/></g></g></g></svg>