<?xml version="1.0" encoding="UTF-8"?><svg xmlns="http://www.w3.org/2000/svg" viewBox="0 0 512 511.99"><g id="a"/><g id="b"><g id="c"><path d="M500.3,443.7l-119.7-119.7c-15.03,22.3-34.26,41.54-56.57,56.57l119.7,119.7c15.62,15.62,40.95,15.62,56.57,0,15.6-15.57,15.6-40.97,0-56.57Z" style="fill:#383838;"/><path d="M207.1,0C93.12,0,0,93.13,0,208s93.12,208,207.1,208,208-93.13,208-208S322.9,0,207.1,0Zm0,336c-70.58,0-128-57.42-128-128S136.52,80,207.1,80s128,57.42,128,128-56.5,128-128,128Z" style="fill:#e01f47; isolation:isolate;"/></g></g></svg>