<?xml version="1.0" encoding="UTF-8"?><svg xmlns="http://www.w3.org/2000/svg" viewBox="0 0 640 448"><g id="a"/><g id="b"><g id="c"><path d="M96,192c35.35,0,64-28.65,64-64s-28.65-64-64-64-64,28.65-64,64c.03,35.33,28.67,63.97,64,64Zm480,32h-64c-16.9-.02-33.12,6.67-45.1,18.6,41.09,22.36,69,63.02,75.1,109.4h66c17.67,0,32-14.33,32-32v-32c-.03-35.33-28.67-63.97-64-64Zm-512,0C28.67,224.03,.03,252.67,0,288v32c0,17.67,14.33,32,32,32H97.9c6.18-46.37,34.12-87.02,75.2-109.4-11.98-11.93-28.2-18.62-45.1-18.6H64Zm480-32c35.35,0,64-28.65,64-64s-28.65-64-64-64-64,28.65-64,64c.03,35.33,28.67,63.97,64,64Z" style="fill:#383838; isolation:isolate;"/><path d="M396.8,256h-8.3c-21.34,10.43-44.75,15.9-68.5,16-24.6,0-47.6-6-68.5-16h-8.3c-63.62,.02-115.18,51.58-115.2,115.2v28.8c0,26.51,21.49,48,48,48H464c26.51,0,48-21.49,48-48v-28.8c-.02-63.62-51.58-115.18-115.2-115.2Zm-76.8-32c61.86,0,112-50.14,112-112S381.86,0,320,0s-112,50.14-112,112c-.03,61.82,50.06,111.97,111.88,112,.04,0,.08,0,.12,0Z" style="fill:#e01f47;"/></g></g></svg>