<?xml version="1.0" encoding="UTF-8"?><svg xmlns="http://www.w3.org/2000/svg" viewBox="0 0 640.05 511.97"><g id="a"/><g id="b"><g id="c"><path d="M422.12,18.18c6.37,1.83,10.05,8.48,8.21,14.85v.05l-136.51,470.2c-1.83,6.37-8.48,10.04-14.85,8.21h-.04l-61-17.71c-6.37-1.83-10.05-8.48-8.21-14.85v-.05L346.23,8.68c1.83-6.37,8.48-10.04,14.85-8.21h.04l61,17.71Z" style="fill:#383838; isolation:isolate;"/><path d="M636.23,247.28L492.12,112.08c-4.85-4.51-12.42-4.29-17,.5l-43.5,46.44c-4.53,4.84-4.29,12.43,.55,16.96,.09,.08,.17,.16,.26,.24l90.57,79.8-90.59,79.7c-4.96,4.32-5.48,11.85-1.16,16.82,.11,.13,.23,.26,.35,.38l43.5,46.4c4.51,4.86,12.1,5.15,16.96,.64l.04-.04,144.11-135.1c4.85-4.47,5.16-12.02,.69-16.87-.21-.23-.44-.45-.67-.67h0ZM208.43,159.08l-43.5-46.4c-4.54-4.83-12.13-5.07-16.96-.54l-.04,.04L3.82,247.18c-4.83,4.49-5.11,12.04-.63,16.87,.2,.22,.41,.43,.63,.63l144.11,135.1c4.75,4.56,12.3,4.4,16.85-.35,.05-.05,.1-.1,.15-.15l43.5-46.4c4.53-4.84,4.29-12.43-.55-16.96-.09-.08-.17-.16-.26-.24l-90.62-79.66,90.6-79.7c4.98-4.31,5.52-11.83,1.22-16.81-.13-.15-.25-.29-.39-.43h0Z" style="fill:#e01f47;"/></g></g></svg>